<mxfile host="65bd71144e">
    <diagram id="objTApYHlBqCKos3M7rL" name="Page-1">
        <mxGraphModel dx="1205" dy="1155" grid="1" gridSize="10" guides="1" tooltips="1" connect="1" arrows="1" fold="1" page="1" pageScale="1" pageWidth="1920" pageHeight="1200" math="0" shadow="0">
            <root>
                <mxCell id="0"/>
                <mxCell id="1" parent="0"/>
                <mxCell id="4" value="" style="rounded=0;whiteSpace=wrap;html=1;fillColor=#FFFFFF;strokeWidth=3;" parent="1" vertex="1">
                    <mxGeometry x="100" y="950" width="1040" height="160" as="geometry"/>
                </mxCell>
                <mxCell id="39" value="&lt;font style=&quot;font-size: 24px&quot;&gt;A&lt;/font&gt;" style="rounded=0;whiteSpace=wrap;html=1;fillColor=#FFFFFF;strokeWidth=3;" parent="1" vertex="1">
                    <mxGeometry x="100" y="840" width="40" height="80" as="geometry"/>
                </mxCell>
                <mxCell id="40" value="&lt;font style=&quot;font-size: 24px&quot;&gt;B&lt;/font&gt;" style="rounded=0;whiteSpace=wrap;html=1;fillColor=#FFFFFF;strokeWidth=3;" parent="1" vertex="1">
                    <mxGeometry x="140" y="840" width="40" height="80" as="geometry"/>
                </mxCell>
                <mxCell id="41" value="&lt;font style=&quot;font-size: 24px&quot;&gt;C&lt;/font&gt;" style="rounded=0;whiteSpace=wrap;html=1;fillColor=#FFFFFF;strokeWidth=3;" parent="1" vertex="1">
                    <mxGeometry x="180" y="840" width="40" height="80" as="geometry"/>
                </mxCell>
                <mxCell id="42" value="&lt;font style=&quot;font-size: 24px&quot;&gt;D&lt;/font&gt;" style="rounded=0;whiteSpace=wrap;html=1;fillColor=#f8cecc;strokeWidth=3;strokeColor=#b85450;" parent="1" vertex="1">
                    <mxGeometry x="220" y="840" width="40" height="80" as="geometry"/>
                </mxCell>
                <mxCell id="43" value="&lt;font style=&quot;font-size: 24px&quot;&gt;E&lt;/font&gt;" style="rounded=0;whiteSpace=wrap;html=1;fillColor=#FFFFFF;strokeWidth=3;" parent="1" vertex="1">
                    <mxGeometry x="260" y="840" width="40" height="80" as="geometry"/>
                </mxCell>
                <mxCell id="44" value="&lt;font style=&quot;font-size: 24px&quot;&gt;F&lt;/font&gt;" style="rounded=0;whiteSpace=wrap;html=1;fillColor=#FFFFFF;strokeWidth=3;" parent="1" vertex="1">
                    <mxGeometry x="300" y="840" width="40" height="80" as="geometry"/>
                </mxCell>
                <mxCell id="45" value="&lt;font style=&quot;font-size: 24px&quot;&gt;G&lt;/font&gt;" style="rounded=0;whiteSpace=wrap;html=1;fillColor=#FFFFFF;strokeWidth=3;" parent="1" vertex="1">
                    <mxGeometry x="340" y="840" width="40" height="80" as="geometry"/>
                </mxCell>
                <mxCell id="46" value="&lt;font style=&quot;font-size: 24px&quot;&gt;H&lt;/font&gt;" style="rounded=0;whiteSpace=wrap;html=1;fillColor=#FFFFFF;strokeWidth=3;" parent="1" vertex="1">
                    <mxGeometry x="380" y="840" width="40" height="80" as="geometry"/>
                </mxCell>
                <mxCell id="47" value="&lt;font style=&quot;font-size: 24px&quot;&gt;I&lt;/font&gt;" style="rounded=0;whiteSpace=wrap;html=1;fillColor=#FFFFFF;strokeWidth=3;" parent="1" vertex="1">
                    <mxGeometry x="420" y="840" width="40" height="80" as="geometry"/>
                </mxCell>
                <mxCell id="48" value="&lt;font style=&quot;font-size: 24px&quot;&gt;J&lt;/font&gt;" style="rounded=0;whiteSpace=wrap;html=1;fillColor=#FFFFFF;strokeWidth=3;" parent="1" vertex="1">
                    <mxGeometry x="460" y="840" width="40" height="80" as="geometry"/>
                </mxCell>
                <mxCell id="49" value="&lt;font style=&quot;font-size: 24px&quot;&gt;K&lt;/font&gt;" style="rounded=0;whiteSpace=wrap;html=1;fillColor=#FFFFFF;strokeWidth=3;" parent="1" vertex="1">
                    <mxGeometry x="500" y="840" width="40" height="80" as="geometry"/>
                </mxCell>
                <mxCell id="50" value="&lt;font style=&quot;font-size: 24px&quot;&gt;L&lt;/font&gt;" style="rounded=0;whiteSpace=wrap;html=1;fillColor=#FFFFFF;strokeWidth=3;" parent="1" vertex="1">
                    <mxGeometry x="540" y="840" width="40" height="80" as="geometry"/>
                </mxCell>
                <mxCell id="51" value="&lt;font style=&quot;font-size: 24px&quot;&gt;M&lt;/font&gt;" style="rounded=0;whiteSpace=wrap;html=1;fillColor=#fff2cc;strokeWidth=3;strokeColor=#d6b656;" parent="1" vertex="1">
                    <mxGeometry x="580" y="840" width="40" height="80" as="geometry"/>
                </mxCell>
                <mxCell id="52" value="&lt;font style=&quot;font-size: 24px&quot;&gt;N&lt;/font&gt;" style="rounded=0;whiteSpace=wrap;html=1;fillColor=#FFFFFF;strokeWidth=3;" parent="1" vertex="1">
                    <mxGeometry x="620" y="840" width="40" height="80" as="geometry"/>
                </mxCell>
                <mxCell id="53" value="&lt;font style=&quot;font-size: 24px&quot;&gt;O&lt;/font&gt;" style="rounded=0;whiteSpace=wrap;html=1;fillColor=#FFFFFF;strokeWidth=3;" parent="1" vertex="1">
                    <mxGeometry x="660" y="840" width="40" height="80" as="geometry"/>
                </mxCell>
                <mxCell id="54" value="&lt;font style=&quot;font-size: 24px&quot;&gt;P&lt;/font&gt;" style="rounded=0;whiteSpace=wrap;html=1;fillColor=#FFFFFF;strokeWidth=3;" parent="1" vertex="1">
                    <mxGeometry x="700" y="840" width="40" height="80" as="geometry"/>
                </mxCell>
                <mxCell id="55" value="&lt;font style=&quot;font-size: 24px&quot;&gt;Q&lt;/font&gt;" style="rounded=0;whiteSpace=wrap;html=1;fillColor=#FFFFFF;strokeWidth=3;" parent="1" vertex="1">
                    <mxGeometry x="740" y="840" width="40" height="80" as="geometry"/>
                </mxCell>
                <mxCell id="56" value="&lt;font style=&quot;font-size: 24px&quot;&gt;R&lt;/font&gt;" style="rounded=0;whiteSpace=wrap;html=1;fillColor=#FFFFFF;strokeWidth=3;" parent="1" vertex="1">
                    <mxGeometry x="780" y="840" width="40" height="80" as="geometry"/>
                </mxCell>
                <mxCell id="57" value="&lt;font style=&quot;font-size: 24px&quot;&gt;S&lt;/font&gt;" style="rounded=0;whiteSpace=wrap;html=1;fillColor=#FFFFFF;strokeWidth=3;" parent="1" vertex="1">
                    <mxGeometry x="820" y="840" width="40" height="80" as="geometry"/>
                </mxCell>
                <mxCell id="58" value="&lt;font style=&quot;font-size: 24px&quot;&gt;T&lt;/font&gt;" style="rounded=0;whiteSpace=wrap;html=1;fillColor=#FFFFFF;strokeWidth=3;" parent="1" vertex="1">
                    <mxGeometry x="860" y="840" width="40" height="80" as="geometry"/>
                </mxCell>
                <mxCell id="59" value="&lt;font style=&quot;font-size: 24px&quot;&gt;U&lt;/font&gt;" style="rounded=0;whiteSpace=wrap;html=1;fillColor=#FFFFFF;strokeWidth=3;" parent="1" vertex="1">
                    <mxGeometry x="900" y="840" width="40" height="80" as="geometry"/>
                </mxCell>
                <mxCell id="60" value="&lt;font style=&quot;font-size: 24px&quot;&gt;V&lt;/font&gt;" style="rounded=0;whiteSpace=wrap;html=1;fillColor=#FFFFFF;strokeWidth=3;" parent="1" vertex="1">
                    <mxGeometry x="940" y="840" width="40" height="80" as="geometry"/>
                </mxCell>
                <mxCell id="61" value="&lt;font style=&quot;font-size: 24px&quot;&gt;W&lt;/font&gt;" style="rounded=0;whiteSpace=wrap;html=1;fillColor=#FFFFFF;strokeWidth=3;" parent="1" vertex="1">
                    <mxGeometry x="980" y="840" width="40" height="80" as="geometry"/>
                </mxCell>
                <mxCell id="62" value="&lt;font style=&quot;font-size: 24px&quot;&gt;X&lt;/font&gt;" style="rounded=0;whiteSpace=wrap;html=1;fillColor=#FFFFFF;strokeWidth=3;" parent="1" vertex="1">
                    <mxGeometry x="1020" y="840" width="40" height="80" as="geometry"/>
                </mxCell>
                <mxCell id="63" value="&lt;font style=&quot;font-size: 24px&quot;&gt;Y&lt;/font&gt;" style="rounded=0;whiteSpace=wrap;html=1;fillColor=#FFFFFF;strokeWidth=3;" parent="1" vertex="1">
                    <mxGeometry x="1060" y="840" width="40" height="80" as="geometry"/>
                </mxCell>
                <mxCell id="64" value="&lt;font style=&quot;font-size: 24px&quot;&gt;Z&lt;/font&gt;" style="rounded=0;whiteSpace=wrap;html=1;fillColor=#FFFFFF;strokeWidth=3;" parent="1" vertex="1">
                    <mxGeometry x="1100" y="840" width="40" height="80" as="geometry"/>
                </mxCell>
                <mxCell id="66" value="&lt;font style=&quot;font-size: 24px&quot;&gt;Dictionary&lt;/font&gt;" style="text;html=1;strokeColor=none;fillColor=none;align=center;verticalAlign=middle;whiteSpace=wrap;rounded=0;" parent="1" vertex="1">
                    <mxGeometry x="565" y="960" width="110" height="30" as="geometry"/>
                </mxCell>
                <mxCell id="69" value="" style="rounded=0;whiteSpace=wrap;html=1;fillColor=#f5f5f5;strokeWidth=3;strokeColor=#666666;fontColor=#333333;" vertex="1" parent="1">
                    <mxGeometry x="580" y="1030" width="560" height="80" as="geometry"/>
                </mxCell>
            </root>
        </mxGraphModel>
    </diagram>
</mxfile>